<svg aria-hidden="true" style="position: absolute; width: 0; height: 0; overflow: hidden;" version="1.1" xmlns="http://www.w3.org/2000/svg" xmlns:xlink="http://www.w3.org/1999/xlink">
<defs>
<symbol id="icon-circle" viewBox="0 0 24 28">
<path d="M24 14c0 6.625-5.375 12-12 12s-12-5.375-12-12 5.375-12 12-12 12 5.375 12 12z"></path>
</symbol>
<symbol id="icon-apps" viewBox="0 0 24 24">
<path d="M15.984 20.016v-4.031h4.031v4.031h-4.031zM15.984 14.016v-4.031h4.031v4.031h-4.031zM9.984 8.016v-4.031h4.031v4.031h-4.031zM15.984 3.984h4.031v4.031h-4.031v-4.031zM9.984 14.016v-4.031h4.031v4.031h-4.031zM3.984 14.016v-4.031h4.031v4.031h-4.031zM3.984 20.016v-4.031h4.031v4.031h-4.031zM9.984 20.016v-4.031h4.031v4.031h-4.031zM3.984 8.016v-4.031h4.031v4.031h-4.031z"></path>
</symbol>
<symbol id="icon-magnifying-glass" viewBox="0 0 20 20">
<path d="M17.545 15.467l-3.779-3.779c0.57-0.935 0.898-2.035 0.898-3.21 0-3.417-2.961-6.377-6.378-6.377s-6.186 2.769-6.186 6.186c0 3.416 2.961 6.377 6.377 6.377 1.137 0 2.2-0.309 3.115-0.844l3.799 3.801c0.372 0.371 0.975 0.371 1.346 0l0.943-0.943c0.371-0.371 0.236-0.84-0.135-1.211zM4.004 8.287c0-2.366 1.917-4.283 4.282-4.283s4.474 2.107 4.474 4.474c0 2.365-1.918 4.283-4.283 4.283s-4.473-2.109-4.473-4.474z"></path>
</symbol>
<symbol id="icon-mic" viewBox="0 0 32 32">
<path d="M15 22c2.761 0 5-2.239 5-5v-12c0-2.761-2.239-5-5-5s-5 2.239-5 5v12c0 2.761 2.239 5 5 5zM22 14v3c0 3.866-3.134 7-7 7s-7-3.134-7-7v-3h-2v3c0 4.632 3.5 8.447 8 8.944v4.056h-4v2h10v-2h-4v-4.056c4.5-0.497 8-4.312 8-8.944v-3h-2z"></path>
</symbol>
</defs>
</svg>
